<svg xmlns="http://www.w3.org/2000/svg" width="120" height="46" viewBox="0 0 120 46" fill="none">
<path d="M32.593 35.593H34.7334C36.3081 35.593 36.9002 34.8959 36.7517 33.2633H32.593V29.3487C31.118 29.1799 29.5921 29.589 29.5921 31.1978V33.2633H27.3521V35.593H29.5921V40.9019C29.5921 43.8314 30.823 45.1045 33.948 45.1045C34.9084 45.1045 35.7201 45.033 36.4831 44.9357L36.4099 42.606C35.8442 42.6536 35.008 42.7013 34.3183 42.7013C33.1627 42.7013 32.5951 42.318 32.5951 41.0687V35.593H32.593Z" fill="white"/>
<path d="M46.1168 36.5074C46.1168 35.7626 46.7068 35.4985 47.4453 35.4985C48.7006 35.4985 49.8563 35.5461 50.5948 35.57C51.9478 35.6176 52.6131 34.8967 52.5378 33.3614C51.6283 33.2641 49.5368 33.1211 47.8136 33.1211C45.132 33.1211 43.1626 34.1062 43.1626 36.5312C43.1626 38.9563 44.6153 39.7249 47.2724 40.1579C49.6833 40.5412 50.1757 40.71 50.1757 41.5263C50.1757 42.5114 49.0445 42.6564 47.9621 42.6564C46.3629 42.6564 44.6641 42.5591 43.6061 42.4637L43.4576 44.9126C44.5888 45.0099 46.2632 45.1033 48.0842 45.1033C51.1848 45.1033 53.1278 44.1678 53.1278 41.6455C53.1278 39.1231 51.8237 38.4995 49.2154 38.0188C46.8044 37.6117 46.1147 37.4429 46.1147 36.5054" fill="white"/>
<path d="M86.1636 35.7145H79.9623C79.8138 37.4682 80.4058 38.213 81.9806 38.213H83.0629V42.2229C82.2023 42.3441 80.2573 42.4871 79.3967 42.4871C76.9369 42.4871 75.9766 41.5497 75.9766 36.8188C75.9766 32.0879 76.6908 31.1504 80.5788 31.4384L83.2359 31.631C85.008 31.7264 85.6712 30.7909 85.6468 29.3252C84.4403 29.1325 81.242 28.7969 79.9135 28.7969C74.2534 28.7969 72.7539 30.3818 72.7539 36.8903C72.7539 43.3987 74.5748 45.1048 79.299 45.1048C81.0711 45.1048 84.418 44.7453 86.1656 44.3838V35.7125L86.1636 35.7145Z" fill="white"/>
<path d="M103.288 36.5084C103.288 35.7636 103.878 35.4994 104.617 35.4994C105.872 35.4994 107.028 35.5471 107.766 35.5709C109.119 35.6186 109.782 34.8976 109.709 33.3624C108.8 33.2651 106.708 33.1221 104.985 33.1221C102.303 33.1221 100.334 34.1072 100.334 36.5322C100.334 38.9572 101.787 39.7259 104.444 40.1588C106.855 40.5422 107.347 40.711 107.347 41.5273C107.347 42.5124 106.214 42.6574 105.131 42.6574C103.532 42.6574 101.835 42.56 100.778 42.4647L100.629 44.9136C101.762 45.0109 103.435 45.1042 105.256 45.1042C108.356 45.1042 110.301 44.1688 110.301 41.6464C110.301 39.1241 108.997 38.5004 106.389 38.0198C103.978 37.6127 103.288 37.4438 103.288 36.5064" fill="white"/>
<path d="M98.6688 36.9133C98.6688 34.4922 97.6617 33.1973 94.5915 33.1973C92.675 33.1973 90.1705 33.4138 89.0413 33.5329C89.0169 34.9947 89.434 35.7375 90.7361 35.7375C91.6191 35.7375 93.3382 35.6422 94.3474 35.6422C95.2324 35.6422 95.6739 35.954 95.6739 36.9609V37.3919C94.323 37.4634 93.0961 37.6084 91.9649 37.7752C89.3119 38.1586 87.7656 38.9033 87.7656 41.4674C87.7656 43.7693 88.9436 45.1596 91.4746 45.1596C94.0056 45.1596 97.0737 44.9689 98.6708 44.7763V36.9113L98.6688 36.9133ZM95.6719 42.812C94.9109 42.9093 93.3627 42.955 92.087 42.955C90.8825 42.955 90.6872 42.1864 90.6872 41.4932C90.6872 40.4128 91.202 40.1268 92.4308 39.9103C93.4624 39.7176 94.4939 39.5985 95.6719 39.527V42.812Z" fill="white"/>
<path d="M22.8086 32.2296H25.8116V29.3477C24.3345 29.1789 22.8086 29.5881 22.8086 31.1968V32.2296Z" fill="white"/>
<path d="M19.0226 33.1209C15.8487 33.1924 14.2495 34.2014 14.2495 37.3235V44.9859H17.2505V37.3235C17.2505 35.8578 17.8161 35.6413 18.9717 35.5936C19.7102 35.546 19.9707 35.689 20.6339 35.3295C21.2484 35.0177 21.4945 34.2729 21.4701 33.2163C20.6583 33.1686 20.0032 33.0971 19.0205 33.1209" fill="white"/>
<path d="M3.10065 35.6673V31.4409H6.96425C8.68751 31.4409 9.12901 32.0407 9.12901 33.5303C9.12901 35.0199 8.63665 35.6673 6.96425 35.6673H3.10065ZM12.6467 40.3744C12.6467 37.8282 11.5155 36.9404 10.014 36.6266C11.2694 36.0983 12.2032 35.3535 12.2032 33.145C12.2032 30.0467 10.7037 28.9424 7.6031 28.9424H0V44.9861H7.92252C10.8991 44.9861 12.6467 43.8322 12.6467 40.3744ZM3.10065 38.0924H7.40575C9.07814 38.0924 9.54609 38.718 9.54609 40.2552C9.54609 41.7925 9.02931 42.4896 7.40575 42.4896H3.10065V38.0944V38.0924Z" fill="white"/>
<path d="M38.4868 32.2296H41.4878V29.3477C40.0127 29.1789 38.4868 29.5881 38.4868 31.1968V32.2296Z" fill="white"/>
<path d="M41.4903 33.2646H38.4629V44.9866H41.4903V33.2646Z" fill="white"/>
<path d="M62.5325 33.1203C60.9333 33.1203 58.915 33.9127 57.6597 34.441V28.588C56.1826 28.4192 54.6567 28.8283 54.6567 30.437V44.9833H57.6597V36.8164C59.0127 36.3119 60.563 35.8075 61.5966 35.8075C62.4816 35.8075 62.9984 36.3358 62.9984 37.1282V44.9813H66.0014V37.0309C66.0014 34.4847 65.0655 33.1163 62.5304 33.1163" fill="white"/>
<path d="M25.8116 33.2646H22.8086V44.9866H25.8116V33.2646Z" fill="white"/>
<path d="M119.222 0L100.874 5.84709C100.874 5.84709 96.7909 7.18374 94.6241 9.03677C93.2223 10.1609 92.266 11.6843 91.8774 13.3963C93.4257 12.58 95.0106 12.0616 95.0106 12.0616L109.69 7.38434C109.69 7.38434 110.262 18.2741 103.698 23.0666C105.609 22.6992 107.806 21.9028 110.325 20.5045C120.017 15.1242 119.222 0 119.222 0Z" fill="#00348E"/>
<path d="M100.856 23.3151C95.7921 23.3151 91.6864 19.6567 91.6864 15.1423C91.6864 14.5445 91.7535 13.9605 91.8817 13.3965C91.2082 13.752 90.5409 14.1631 90.016 14.614C88.5247 15.8096 87.6641 17.5693 87.6641 19.4978C87.6641 23.1085 90.9478 26.0341 94.9986 26.0341C96.9803 26.0877 99.4726 25.5078 102.577 23.7858C102.974 23.5653 103.348 23.323 103.702 23.0648C102.671 23.2635 101.725 23.3369 100.858 23.3151H100.856Z" fill="#84D113"/>
</svg>
