<svg xmlns="http://www.w3.org/2000/svg" width="30" height="25" viewBox="-4 0 30 25" fill="none">
<path d="M24.7925 0L8.15717 5.43073C8.15717 5.43073 4.4549 6.6722 2.49032 8.39329C1.21933 9.43738 0.352334 10.8522 0 12.4424C1.4038 11.6842 2.8408 11.2027 2.8408 11.2027L16.1502 6.85852C16.1502 6.85852 16.6685 16.9729 10.7176 21.4241C12.4497 21.0828 14.442 20.3431 16.7257 19.0445C25.5138 14.0472 24.7925 0 24.7925 0Z" fill="#00348E"/>
<path d="M8.14 21.66C3.55 21.66 -0.17 18.26 -0.17 14.07C-0.17 13.51 -0.11 12.97 0.00 12.44C-0.61 12.77 -1.21 13.16 -1.69 13.57C-3.04 14.68 -3.82 16.32 -3.82 18.11C-3.82 21.47 -0.84 24.19 2.83 24.19C4.63 24.24 6.89 23.69 9.70 22.09C10.06 21.89 10.40 21.66 10.72 21.42C9.79 21.61 8.93 21.68 8.14 21.66Z" fill="#84D113"/>
</svg>
