<svg xmlns="http://www.w3.org/2000/svg" width="24" height="24" viewBox="0 0 24 24" fill="none">
<path d="M8.95312 0C13.8978 0 17.9062 4.00845 17.9062 8.95312C17.9062 10.8785 17.2959 12.6601 16.2617 14.1201L22.8193 20.792C23.3998 21.3827 23.3922 22.3324 22.8018 22.9131C22.2111 23.4935 21.2614 23.4858 20.6807 22.8955L14.1436 16.2441C12.6791 17.2885 10.8889 17.9062 8.95312 17.9062C4.00854 17.9062 0.000148437 13.8977 0 8.95312C2.57711e-07 4.00845 4.00845 2.5771e-07 8.95312 0ZM8.95312 3C5.66531 3 3 5.66531 3 8.95312C3.00015 12.2408 5.6654 14.9062 8.95312 14.9062C12.2409 14.9062 14.9061 12.2408 14.9062 8.95312C14.9062 5.6653 12.2409 3 8.95312 3ZM8.88477 5.95312C9.28871 7.67134 10.2332 8.62937 11.918 8.9541C10.2027 9.27089 9.26894 10.243 8.89355 11.9531C8.53018 10.2332 7.59748 9.28204 5.91895 8.96191C7.54322 8.60744 8.53173 7.70604 8.88477 5.95312Z" fill="#EDEEF0"/>
</svg>
